<svg width="1204" height="229" viewBox="0 0 1204 229" fill="none" xmlns="http://www.w3.org/2000/svg">
<path fill-rule="evenodd" clip-rule="evenodd" d="M1021.36 143.672L1021.12 148.902C1020.43 163.944 1016.35 177.421 1008.8 189.198L1008.8 189.207L1008.79 189.215C1001.21 200.94 990.575 209.97 977.062 216.331C963.635 222.696 948.4 225.812 931.469 225.812C903.367 225.812 880.723 216.598 864.157 197.824C847.627 179.09 839.703 153.003 839.703 120.266V110.141C839.703 89.5054 843.271 71.2312 850.571 55.448L850.577 55.4355C857.983 39.5367 868.685 27.1406 882.694 18.4319C896.701 9.6302 912.829 5.29688 930.906 5.29688C956.65 5.29688 977.879 12.1151 994.087 26.2058C1010.31 40.2176 1019.37 59.4972 1021.53 83.5372L1022.02 88.9844H962.476L962.33 84.1347C961.974 72.2827 959.005 64.9326 954.52 60.8035C949.909 56.5583 942.365 53.9688 930.906 53.9688C920.076 53.9688 912.82 57.8909 908.151 65.3922C903.176 73.3851 900.187 86.9084 899.906 106.801V121.25C899.906 142.926 902.649 157.387 907.379 165.554C911.793 173.024 919.363 177.141 931.469 177.141C942.089 177.141 949.391 174.638 954.159 170.391C958.75 166.302 961.699 159.385 962.049 148.511L962.206 143.672H1021.36ZM903.062 168.078C897.625 158.703 894.906 143.094 894.906 121.25V106.766C895.188 86.6094 898.188 71.9375 903.906 62.75C909.625 53.5625 918.625 48.9688 930.906 48.9688C943 48.9688 952 51.6875 957.906 57.125C963.812 62.5625 966.953 71.5156 967.328 83.9844H1016.55C1016.39 82.2907 1016.21 80.624 1015.98 78.9844C1013.18 58.3881 1004.79 42.0547 990.812 29.9844C975.719 16.8594 955.75 10.2969 930.906 10.2969C913.656 10.2969 898.469 14.4219 885.344 22.6719C872.219 30.8281 862.141 42.4531 855.109 57.5469C848.172 72.5469 844.703 90.0781 844.703 110.141V120.266C844.703 152.234 852.438 176.984 867.906 194.516C883.375 212.047 904.562 220.812 931.469 220.812C947.781 220.812 962.266 217.812 974.922 211.812C987.672 205.812 997.562 197.375 1004.59 186.5C1010.79 176.832 1014.51 165.889 1015.76 153.672C1015.92 152.028 1016.05 150.362 1016.12 148.672H967.047C966.672 160.297 963.484 168.781 957.484 174.125C951.484 179.469 942.812 182.141 931.469 182.141C918.062 182.141 908.594 177.453 903.062 168.078Z" fill="#A80000"/>
<path fill-rule="evenodd" clip-rule="evenodd" d="M106.247 153.628L106.229 153.615C101.893 150.162 93.6535 146.212 80.8929 141.927C67.9318 137.576 57.2051 133.323 48.7762 129.158C21.1395 115.583 6.1875 96.2305 6.1875 70.9531C6.1875 58.5704 9.79496 47.5104 17.0521 37.9724L17.057 37.9659C24.357 28.404 34.5285 21.1591 47.3023 16.1064C60.0722 10.9614 74.3091 8.4375 89.9375 8.4375C105.255 8.4375 119.143 11.171 131.505 16.7529C143.992 22.3487 153.854 30.431 160.894 41.0381C167.951 51.5763 171.438 63.6196 171.438 77V82H112.219V77C112.219 69.7593 110.03 64.7764 106.158 61.327L106.141 61.3119L106.124 61.2966C102.214 57.7482 96.6428 55.7031 88.8125 55.7031C80.7082 55.7031 74.9134 57.5138 70.8939 60.5832L70.8829 60.5916C66.9795 63.5553 65.2656 67.0434 65.2656 71.375C65.2656 74.5608 66.8852 78.0182 71.7243 81.7346C76.648 85.4197 85.8486 89.6151 99.9033 94.1768C114.266 98.7431 126.246 103.746 135.746 109.23C159.161 122.723 171.438 141.822 171.438 166.297C171.438 185.664 164.035 201.246 149.205 212.471C134.555 223.561 114.845 228.812 90.6406 228.812C73.4441 228.812 57.703 225.75 43.4959 219.534L43.4767 219.525L43.4575 219.517C29.3508 213.203 18.4169 204.487 10.9589 193.249L10.9444 193.227L10.9302 193.205C3.60828 181.917 0 169.002 0 154.625V149.625H59.5V154.625C59.5 164.784 62.0929 171.305 66.3176 175.268C70.6842 179.184 78.3995 181.688 90.6406 181.688C98.1376 181.688 103.382 180.089 106.926 177.47C110.337 174.925 112.078 171.498 112.078 166.578C112.078 160.717 110.072 156.619 106.264 153.642L106.247 153.628ZM109.906 181.484C105.219 184.953 98.7969 186.688 90.6406 186.688C77.8906 186.688 68.6562 184.109 62.9375 178.953C57.3125 173.703 54.5 165.594 54.5 154.625H5C5 156.316 5.05295 157.983 5.15885 159.625C5.89842 171.095 9.22047 181.382 15.125 190.484C21.9688 200.797 32.0938 208.953 45.5 214.953C59 220.859 74.0469 223.812 90.6406 223.812C114.172 223.812 132.688 218.703 146.188 208.484C159.688 198.266 166.438 184.203 166.438 166.297C166.438 143.891 155.375 126.312 133.25 113.562C124.156 108.312 112.531 103.438 98.375 98.9375C84.2188 94.3438 74.3281 89.9375 68.7031 85.7188C63.0781 81.4062 60.2656 76.625 60.2656 71.375C60.2656 65.375 62.7969 60.4531 67.8594 56.6094C73.0156 52.6719 80 50.7031 88.8125 50.7031C97.5312 50.7031 104.422 53 109.484 57.5938C114.641 62.1875 117.219 68.6562 117.219 77H166.438C166.438 75.3074 166.378 73.6408 166.259 72C165.5 61.5538 162.325 52.158 156.734 43.8125C150.266 34.0625 141.172 26.5625 129.453 21.3125C117.828 16.0625 104.656 13.4375 89.9375 13.4375C74.8438 13.4375 61.25 15.875 49.1562 20.75C37.0625 25.5312 27.6875 32.2812 21.0312 41C14.4688 49.625 11.1875 59.6094 11.1875 70.9531C11.1875 93.7344 24.4531 111.641 50.9844 124.672C59.1406 128.703 69.6406 132.875 82.4844 137.188C95.3281 141.5 104.281 145.672 109.344 149.703C114.5 153.734 117.078 159.359 117.078 166.578C117.078 172.953 114.688 177.922 109.906 181.484ZM323.734 139.234H246.109V178.031H337.797V226H186.75V11.25H338.078V59.3594H246.109V92.5312H323.734V139.234ZM241.109 97.5312V54.3594H333.078V16.25H191.75V221H332.797V183.031H241.109V134.234H318.734V97.5312H241.109ZM815.781 226H758.797L694.141 112.476V226H634.781V11.25H692.05L756.562 124.742V11.25H815.781V226ZM761.562 143.656L689.141 16.25H639.781V221H689.141V93.5938L761.703 221H810.781V16.25H761.562V143.656ZM1189.14 139.234H1111.52V178.031H1203.2V226H1052.16V11.25H1203.48V59.3594H1111.52V92.5312H1189.14V139.234ZM1106.52 97.5312V54.3594H1198.48V16.25H1057.16V221H1198.2V183.031H1106.52V134.234H1184.14V97.5312H1106.52Z" fill="#A80000"/>
<path fill-rule="evenodd" clip-rule="evenodd" d="M487 71L418 184H556L487 71ZM487 80.5943L426.912 179H547.088L487 80.5943Z" fill="#A80000"/>
<path fill-rule="evenodd" clip-rule="evenodd" d="M487.5 0L351 226H624L487.5 0ZM487.5 9.77016L359.975 220.91H615.025L487.5 9.77016Z" fill="#A80000"/>
</svg>
