<svg width="1204" height="226" viewBox="0 0 1204 226" fill="none" xmlns="http://www.w3.org/2000/svg">
<path fill-rule="evenodd" clip-rule="evenodd" d="M352 222.5L487.5 0L624 222.5H352ZM423.786 179L487.5 76.0234L551.214 179H423.786ZM1021.12 145.902L1021.36 140.672H962.206L962.049 145.511C961.699 156.385 958.75 163.302 954.159 167.391C949.391 171.638 942.089 174.141 931.469 174.141C919.363 174.141 911.793 170.024 907.379 162.554C902.649 154.387 899.906 139.926 899.906 118.25V103.801C900.187 83.9084 903.176 70.3851 908.151 62.3922C912.82 54.8909 920.076 50.9688 930.906 50.9688C942.365 50.9688 949.909 53.5583 954.52 57.8035C959.005 61.9326 961.974 69.2827 962.33 81.1347L962.476 85.9844H1022.02L1021.53 80.5372C1019.37 56.4972 1010.31 37.2176 994.087 23.2058C977.879 9.11509 956.65 2.29688 930.906 2.29688C912.829 2.29688 896.701 6.6302 882.694 15.4319C868.685 24.1406 857.983 36.5367 850.577 52.4355L850.571 52.448C843.271 68.2312 839.703 86.5054 839.703 107.141V117.266C839.703 150.003 847.628 176.09 864.157 194.824C880.723 213.598 903.367 222.812 931.469 222.812C948.4 222.812 963.635 219.696 977.062 213.331C990.575 206.97 1001.21 197.94 1008.79 186.215L1008.8 186.207L1008.8 186.198C1016.35 174.421 1020.43 160.944 1021.12 145.902ZM894.906 118.25C894.906 140.094 897.625 155.703 903.062 165.078C908.594 174.453 918.062 179.141 931.469 179.141C942.812 179.141 951.484 176.469 957.484 171.125C963.484 165.781 966.672 157.297 967.047 145.672H1016.12C1016.05 147.362 1015.92 149.028 1015.76 150.672C1014.51 162.889 1010.79 173.832 1004.59 183.5C997.562 194.375 987.672 202.812 974.922 208.812C962.266 214.812 947.781 217.812 931.469 217.812C904.562 217.812 883.375 209.047 867.906 191.516C852.438 173.984 844.703 149.234 844.703 117.266V107.141C844.703 87.0781 848.172 69.5469 855.109 54.5469C862.141 39.4531 872.219 27.8281 885.344 19.6719C898.469 11.4219 913.656 7.29688 930.906 7.29688C955.75 7.29688 975.719 13.8594 990.812 26.9844C1004.79 39.0547 1013.18 55.3881 1015.98 75.9844C1016.21 77.624 1016.39 79.2907 1016.55 80.9844H967.328C966.953 68.5156 963.812 59.5625 957.906 54.125C952 48.6875 943 45.9688 930.906 45.9688C918.625 45.9688 909.625 50.5625 903.906 59.75C898.188 68.9375 895.188 83.6094 894.906 103.766V118.25ZM106.229 150.615L106.247 150.628L106.264 150.642C110.072 153.619 112.078 157.717 112.078 163.578C112.078 168.498 110.337 171.925 106.926 174.47C103.382 177.089 98.1376 178.688 90.6406 178.688C78.3995 178.688 70.6842 176.184 66.3176 172.268C62.0929 168.305 59.5 161.784 59.5 151.625V146.625H0V151.625C0 166.002 3.60828 178.917 10.9302 190.205L10.9444 190.227L10.9589 190.249C18.4169 201.487 29.3508 210.203 43.4575 216.517L43.4767 216.525L43.4959 216.534C57.703 222.75 73.4441 225.812 90.6406 225.812C114.845 225.812 134.555 220.561 149.205 209.471C164.035 198.246 171.438 182.664 171.438 163.297C171.438 138.822 159.161 119.723 135.746 106.23C126.246 100.746 114.266 95.7431 99.9033 91.1768C85.8486 86.6151 76.648 82.4197 71.7243 78.7346C66.8852 75.0182 65.2656 71.5608 65.2656 68.375C65.2656 64.0434 66.9795 60.5553 70.8829 57.5916L70.8939 57.5832C74.9134 54.5138 80.7082 52.7031 88.8125 52.7031C96.6428 52.7031 102.214 54.7482 106.124 58.2966L106.141 58.3119L106.158 58.327C110.03 61.7764 112.219 66.7593 112.219 74V79H171.438V74C171.438 60.6196 167.951 48.5763 160.894 38.0381C153.854 27.431 143.992 19.3487 131.505 13.7529C119.143 8.17103 105.255 5.4375 89.9375 5.4375C74.3091 5.4375 60.0722 7.96143 47.3023 13.1064C34.5285 18.1591 24.357 25.404 17.057 34.9659L17.0521 34.9724C9.79496 44.5104 6.1875 55.5704 6.1875 67.9531C6.1875 93.2305 21.1395 112.583 48.7762 126.158C57.2051 130.323 67.9318 134.576 80.8929 138.927C93.6535 143.212 101.893 147.162 106.229 150.615ZM90.6406 183.688C98.7969 183.688 105.219 181.953 109.906 178.484C114.688 174.922 117.078 169.953 117.078 163.578C117.078 156.359 114.5 150.734 109.344 146.703C104.281 142.672 95.3281 138.5 82.4844 134.188C69.6406 129.875 59.1406 125.703 50.9844 121.672C24.4531 108.641 11.1875 90.7344 11.1875 67.9531C11.1875 56.6094 14.4688 46.625 21.0312 38C27.6875 29.2812 37.0625 22.5312 49.1562 17.75C61.25 12.875 74.8438 10.4375 89.9375 10.4375C104.656 10.4375 117.828 13.0625 129.453 18.3125C141.172 23.5625 150.266 31.0625 156.734 40.8125C162.325 49.158 165.5 58.5538 166.259 69C166.378 70.6408 166.438 72.3074 166.438 74H117.219C117.219 65.6562 114.641 59.1875 109.484 54.5938C104.422 50 97.5312 47.7031 88.8125 47.7031C80 47.7031 73.0156 49.6719 67.8594 53.6094C62.7969 57.4531 60.2656 62.375 60.2656 68.375C60.2656 73.625 63.0781 78.4062 68.7031 82.7188C74.3281 86.9375 84.2188 91.3438 98.375 95.9375C112.531 100.438 124.156 105.312 133.25 110.562C155.375 123.312 166.438 140.891 166.438 163.297C166.438 181.203 159.688 195.266 146.188 205.484C132.688 215.703 114.172 220.812 90.6406 220.812C74.0469 220.812 59 217.859 45.5 211.953C32.0938 205.953 21.9688 197.797 15.125 187.484C9.22047 178.382 5.89842 168.095 5.15885 156.625C5.05295 154.983 5 153.316 5 151.625H54.5C54.5 162.594 57.3125 170.703 62.9375 175.953C68.6562 181.109 77.8906 183.688 90.6406 183.688ZM246.109 136.234H323.734V89.5312H246.109V56.3594H338.078V8.25H186.75V223H337.797V175.031H246.109V136.234ZM241.109 51.3594V94.5312H318.734V131.234H241.109V180.031H332.797V218H191.75V13.25H333.078V51.3594H241.109ZM758.797 223H815.781V8.25H756.562V121.742L692.05 8.25H634.781V223H694.141V109.476L758.797 223ZM689.141 13.25L761.562 140.656V13.25H810.781V218H761.703L689.141 90.5938V218H639.781V13.25H689.141ZM1111.52 136.234H1189.14V89.5312H1111.52V56.3594H1203.48V8.25H1052.16V223H1203.2V175.031H1111.52V136.234ZM1106.52 51.3594V94.5312H1184.14V131.234H1106.52V180.031H1198.2V218H1057.16V13.25H1198.48V51.3594H1106.52Z" fill="white"/>
</svg>
