<svg width="272" height="223" viewBox="0 0 272 223" fill="none" xmlns="http://www.w3.org/2000/svg">
<path fill-rule="evenodd" clip-rule="evenodd" d="M135.5 0L67.75 111.25L0 222.5H136H272L203.75 111.25L135.5 0ZM135.5 76.0234L71.7861 179H199.214L135.5 76.0234Z" fill="white"/>
<rect y="92" width="272" height="86" fill="black"/>
<path d="M63.8906 170H54.4668V137.139H18.627V170H9.25195V98.9062H18.627V129.473H54.4668V98.9062H63.8906V170ZM76.7324 143.096C76.7324 137.92 77.7415 133.265 79.7598 129.131C81.8105 124.997 84.6426 121.807 88.2559 119.561C91.9017 117.314 96.0521 116.191 100.707 116.191C107.901 116.191 113.712 118.682 118.139 123.662C122.598 128.643 124.828 135.267 124.828 143.535V144.17C124.828 149.313 123.835 153.936 121.85 158.037C119.896 162.106 117.081 165.28 113.402 167.559C109.757 169.837 105.557 170.977 100.805 170.977C93.6432 170.977 87.8327 168.486 83.373 163.506C78.946 158.525 76.7324 151.934 76.7324 143.73V143.096ZM85.8145 144.17C85.8145 150.029 87.1654 154.733 89.8672 158.281C92.6016 161.829 96.2474 163.604 100.805 163.604C105.395 163.604 109.04 161.813 111.742 158.232C114.444 154.619 115.795 149.574 115.795 143.096C115.795 137.301 114.411 132.614 111.645 129.033C108.91 125.42 105.264 123.613 100.707 123.613C96.2474 123.613 92.6504 125.387 89.916 128.936C87.1816 132.484 85.8145 137.562 85.8145 144.17ZM144.652 117.168L144.896 123.027C148.77 118.47 153.995 116.191 160.57 116.191C167.96 116.191 172.989 119.023 175.658 124.688C177.416 122.148 179.695 120.098 182.494 118.535C185.326 116.973 188.663 116.191 192.504 116.191C204.092 116.191 209.984 122.327 210.18 134.6V170H201.146V135.137C201.146 131.361 200.284 128.545 198.559 126.689C196.833 124.801 193.936 123.857 189.867 123.857C186.514 123.857 183.731 124.867 181.518 126.885C179.304 128.87 178.018 131.556 177.66 134.941V170H168.578V135.381C168.578 127.699 164.818 123.857 157.299 123.857C151.374 123.857 147.322 126.38 145.141 131.426V170H136.107V117.168H144.652ZM245.775 170.977C238.614 170.977 232.787 168.633 228.295 163.945C223.803 159.225 221.557 152.926 221.557 145.049V143.389C221.557 138.148 222.549 133.477 224.535 129.375C226.553 125.241 229.353 122.018 232.934 119.707C236.547 117.363 240.453 116.191 244.652 116.191C251.521 116.191 256.859 118.454 260.668 122.979C264.477 127.503 266.381 133.981 266.381 142.412V146.172H230.59C230.72 151.38 232.234 155.596 235.131 158.818C238.061 162.008 241.771 163.604 246.264 163.604C249.454 163.604 252.156 162.952 254.369 161.65C256.583 160.348 258.52 158.623 260.18 156.475L265.697 160.771C261.27 167.575 254.63 170.977 245.775 170.977ZM244.652 123.613C241.007 123.613 237.947 124.948 235.473 127.617C232.999 130.254 231.469 133.965 230.883 138.75H257.348V138.066C257.087 133.477 255.85 129.928 253.637 127.422C251.423 124.883 248.428 123.613 244.652 123.613Z" fill="white"/>
</svg>
